inDegrees=yes
DataType=double
version=3
OpenSimVersion=4.5-2024-07-22-fc2981e9e
endheader
time	pelvis_tx	pelvis_ty	pelvis_tz	pelvis_tilt	pelvis_list	pelvis_rotation	hip_flexion_r	hip_adduction_r	hip_rotation_r	knee_angle_r	ankle_angle_r	subtalar_angle_r	mtp_angle_r	hip_flexion_l	hip_adduction_l	hip_rotation_l	knee_angle_l	ankle_angle_l	subtalar_angle_l	mtp_angle_l	lumbar_extension	lumbar_bending	lumbar_rotation	ground_force_vx	ground_force_vy	ground_force_vz	ground_force_px	ground_force_py	ground_force_pz	ground_force_vx	ground_force_vy	ground_force_vz	ground_force_px	ground_force_py	ground_force_pz	ground_torque_x	ground_torque_y	ground_torque_z	ground_torque_x	ground_torque_y	ground_torque_z	ground_marker_px	ground_marker_py	ground_marker_pz	ground_marker_px	ground_marker_py	ground_marker_pz	ground_marker_px	ground_marker_py	ground_marker_pz	ground_marker_px	ground_marker_py	ground_marker_pz	ground_marker_px	ground_marker_py	ground_marker_pz	ground_marker_px	ground_marker_py	ground_marker_pz	ground_marker_px	ground_marker_py	ground_marker_pz	ground_marker_px	ground_marker_py	ground_marker_pz	ground_marker_px	ground_marker_py	ground_marker_pz	ground_marker_px	ground_marker_py	ground_marker_pz	ground_marker_px	ground_marker_py	ground_marker_pz	ground_marker_px	ground_marker_py	ground_marker_pz	ground_marker_px	ground_marker_py	ground_marker_pz	ground_marker_px	ground_marker_py	ground_marker_pz	ground_marker_px	ground_marker_py	ground_marker_pz	ground_marker_px	ground_marker_py	ground_marker_pz	ground_marker_px	ground_marker_py	ground_marker_pz	ground_marker_px	ground_marker_py	ground_marker_pz	ground_marker_px	ground_marker_py	ground_marker_pz	ground_marker_px	ground_marker_py	ground_marker_pz	ground_marker_px	ground_marker_py	ground_marker_pz	ground_marker_px	ground_marker_py	ground_marker_pz	ground_marker_px	ground_marker_py	ground_marker_pz	ground_marker_px	ground_marker_py	ground_marker_pz	ground_marker_px	ground_marker_py	ground_marker_pz	ground_marker_px	ground_marker_py	ground_marker_pz	ground_marker_px	ground_marker_py	ground_marker_pz	ground_marker_px	ground_marker_py	ground_marker_pz	ground_marker_px	ground_marker_py	ground_marker_pz	ground_marker_px	ground_marker_py	ground_marker_pz	ground_marker_px	ground_marker_py	ground_marker_pz	ground_marker_px	ground_marker_py	ground_marker_pz	ground_marker_px	ground_marker_py	ground_marker_pz	ground_marker_px	ground_marker_py	ground_marker_pz	ground_marker_px	ground_marker_py	ground_marker_pz	ground_marker_px	ground_marker_py	ground_marker_pz	ground_marker_px	ground_marker_py	ground_marker_pz
0.3624999386956522	0.8497646585690812	0.9731603595942342	-0.3164577550566924	-6.596458579650299	-0.4647098848908418	5.471094867509724	32.39927958384655	-3.683578592387379	0.789681657693484	-45.75956765107165	1.280888204395238	-1.04444893865997e-11	-2.952098451723339e-10	6.30042975248984	3.395831830582465	10	-11.97522024716317	9.82081056418243	1.658412978699816e-09	-2.649992283794874e-09	0.2921028048147051	-4.197412871529967	-3.004281121014869	-0.5649310116046454	-0.6539563886755815	-0.09379574291968844	1.174922874086503	6.911398138207779e-10	-0.2524107457285218	-0.5649310116046454	-0.6539563886755815	-0.09379574291968844	1.174922874086503	6.911398138207779e-10	-0.2524107457285218	1.226528603844288e-09	0.01662608684524142	-9.76127892568677e-10	1.226528603844288e-09	0.01662608684524142	-9.76127892568677e-10	0.7935478551778161	0.8223279942073892	-0.3095160242448426	0.7935478551778161	0.8223279942073892	-0.3095160242448426	0.7935478551778161	0.8223279942073892	-0.3095160242448426	0.7935478551778161	0.8223279942073892	-0.3095160242448426	0.7935478551778161	0.8223279942073892	-0.3095160242448426	0.7935478551778161	0.8223279942073892	-0.3095160242448426	0.7935478551778161	0.8223279942073892	-0.3095160242448426	0.7935478551778161	0.8223279942073892	-0.3095160242448426	0.7935478551778161	0.8223279942073892	-0.3095160242448426	0.7935478551778161	0.8223279942073892	-0.3095160242448426	0.7935478551778161	0.8223279942073892	-0.3095160242448426	0.7935478551778161	0.8223279942073892	-0.3095160242448426	0.7935478551778161	0.8223279942073892	-0.3095160242448426	0.7935478551778161	0.8223279942073892	-0.3095160242448426	0.7935478551778161	0.8223279942073892	-0.3095160242448426	0.7935478551778161	0.8223279942073892	-0.3095160242448426	0.7935478551778161	0.8223279942073892	-0.3095160242448426	0.7935478551778161	0.8223279942073892	-0.3095160242448426	0.7935478551778161	0.8223279942073892	-0.3095160242448426	0.7935478551778161	0.8223279942073892	-0.3095160242448426	0.7935478551778161	0.8223279942073892	-0.3095160242448426	0.7935478551778161	0.8223279942073892	-0.3095160242448426	0.7935478551778161	0.8223279942073892	-0.3095160242448426	0.7935478551778161	0.8223279942073892	-0.3095160242448426	0.7935478551778161	0.8223279942073892	-0.3095160242448426	0.7935478551778161	0.8223279942073892	-0.3095160242448426	0.7935478551778161	0.8223279942073892	-0.3095160242448426	0.7935478551778161	0.8223279942073892	-0.3095160242448426	0.7935478551778161	0.8223279942073892	-0.3095160242448426	0.7935478551778161	0.8223279942073892	-0.3095160242448426	0.7935478551778161	0.8223279942073892	-0.3095160242448426	0.7935478551778161	0.8223279942073892	-0.3095160242448426	0.7935478551778161	0.8223279942073892	-0.3095160242448426	0.7935478551778161	0.8223279942073892	-0.3095160242448426	0.7935478551778161	0.8223279942073892	-0.3095160242448426	0.7935478551778161	0.8223279942073892	-0.3095160242448426	0.7935478551778161	0.8223279942073892	-0.3095160242448426
0.3833332713043478	0.8689405877025798	0.9731603595942342	-0.3178466869991047	-6.740092652406072	-0.7789165664890527	5.787368053441257	33.29130073265829	-3.38394287876017	1.395643366959424	-38.79307696416737	1.667016404349708	-1.11562499241976e-09	-8.42454107666914e-10	4.561607444423208	2.948131837273744	10	-11.20341704002696	10.71513540175961	3.023088305728504e-09	-2.126335188478111e-09	0.2791584673834162	-3.453191483004366	-3.573557031232187	-0.2873498164658321	-1.133988780090101	-0.01170057420546655	1.185491432955921	1.461615324600951e-09	-0.250596959297025	-0.2873498164658321	-1.133988780090101	-0.01170057420546655	1.185491432955921	1.461615324600951e-09	-0.250596959297025	6.732474630244502e-10	0.01071752463843951	2.244271372218893e-10	6.732474630244502e-10	0.01071752463843951	2.244271372218893e-10	0.8139402477163217	0.8230875690367758	-0.3092206960646013	0.8139402477163217	0.8230875690367758	-0.3092206960646013	0.8139402477163217	0.8230875690367758	-0.3092206960646013	0.8139402477163217	0.8230875690367758	-0.3092206960646013	0.8139402477163217	0.8230875690367758	-0.3092206960646013	0.8139402477163217	0.8230875690367758	-0.3092206960646013	0.8139402477163217	0.8230875690367758	-0.3092206960646013	0.8139402477163217	0.8230875690367758	-0.3092206960646013	0.8139402477163217	0.8230875690367758	-0.3092206960646013	0.8139402477163217	0.8230875690367758	-0.3092206960646013	0.8139402477163217	0.8230875690367758	-0.3092206960646013	0.8139402477163217	0.8230875690367758	-0.3092206960646013	0.8139402477163217	0.8230875690367758	-0.3092206960646013	0.8139402477163217	0.8230875690367758	-0.3092206960646013	0.8139402477163217	0.8230875690367758	-0.3092206960646013	0.8139402477163217	0.8230875690367758	-0.3092206960646013	0.8139402477163217	0.8230875690367758	-0.3092206960646013	0.8139402477163217	0.8230875690367758	-0.3092206960646013	0.8139402477163217	0.8230875690367758	-0.3092206960646013	0.8139402477163217	0.8230875690367758	-0.3092206960646013	0.8139402477163217	0.8230875690367758	-0.3092206960646013	0.8139402477163217	0.8230875690367758	-0.3092206960646013	0.8139402477163217	0.8230875690367758	-0.3092206960646013	0.8139402477163217	0.8230875690367758	-0.3092206960646013	0.8139402477163217	0.8230875690367758	-0.3092206960646013	0.8139402477163217	0.8230875690367758	-0.3092206960646013	0.8139402477163217	0.8230875690367758	-0.3092206960646013	0.8139402477163217	0.8230875690367758	-0.3092206960646013	0.8139402477163217	0.8230875690367758	-0.3092206960646013	0.8139402477163217	0.8230875690367758	-0.3092206960646013	0.8139402477163217	0.8230875690367758	-0.3092206960646013	0.8139402477163217	0.8230875690367758	-0.3092206960646013	0.8139402477163217	0.8230875690367758	-0.3092206960646013	0.8139402477163217	0.8230875690367758	-0.3092206960646013	0.8139402477163217	0.8230875690367758	-0.3092206960646013	0.8139402477163217	0.8230875690367758	-0.3092206960646013	0.8139402477163217	0.8230875690367758	-0.3092206960646013
0.4041666039130435	0.8895947388954438	0.9731603595942342	-0.3179432391152915	-6.824420745174359	-0.8892517561372294	6.241548649892394	33.47758572053611	-3.379773760673259	2.148949280218248	-31.13321065746476	1.557344437921227	-1.44662991463327e-09	-1.054178170772595e-09	2.743654549021843	2.794659883225077	10	-10.60305580673336	11.45856009147773	3.810752760367166e-09	9.421749276308647e-10	0.2184729054208342	-3.428536858321039	-3.946689579345848	0.1966705668968579	-0.9923127083195935	0.009360960149087372	1.19429553921309	2.541025997453289e-09	-0.2490821370459575	0.1966705668968579	-0.9923127083195935	0.009360960149087372	1.19429553921309	2.541025997453289e-09	-0.2490821370459575	1.461474904572889e-09	-9.840029628173136e-05	3.084524556940068e-09	1.461474904572889e-09	-9.840029628173136e-05	3.084524556940068e-09	0.8322248436998972	0.8201911335473373	-0.3093071737016698	0.8322248436998972	0.8201911335473373	-0.3093071737016698	0.8322248436998972	0.8201911335473373	-0.3093071737016698	0.8322248436998972	0.8201911335473373	-0.3093071737016698	0.8322248436998972	0.8201911335473373	-0.3093071737016698	0.8322248436998972	0.8201911335473373	-0.3093071737016698	0.8322248436998972	0.8201911335473373	-0.3093071737016698	0.8322248436998972	0.8201911335473373	-0.3093071737016698	0.8322248436998972	0.8201911335473373	-0.3093071737016698	0.8322248436998972	0.8201911335473373	-0.3093071737016698	0.8322248436998972	0.8201911335473373	-0.3093071737016698	0.8322248436998972	0.8201911335473373	-0.3093071737016698	0.8322248436998972	0.8201911335473373	-0.3093071737016698	0.8322248436998972	0.8201911335473373	-0.3093071737016698	0.8322248436998972	0.8201911335473373	-0.3093071737016698	0.8322248436998972	0.8201911335473373	-0.3093071737016698	0.8322248436998972	0.8201911335473373	-0.3093071737016698	0.8322248436998972	0.8201911335473373	-0.3093071737016698	0.8322248436998972	0.8201911335473373	-0.3093071737016698	0.8322248436998972	0.8201911335473373	-0.3093071737016698	0.8322248436998972	0.8201911335473373	-0.3093071737016698	0.8322248436998972	0.8201911335473373	-0.3093071737016698	0.8322248436998972	0.8201911335473373	-0.3093071737016698	0.8322248436998972	0.8201911335473373	-0.3093071737016698	0.8322248436998972	0.8201911335473373	-0.3093071737016698	0.8322248436998972	0.8201911335473373	-0.3093071737016698	0.8322248436998972	0.8201911335473373	-0.3093071737016698	0.8322248436998972	0.8201911335473373	-0.3093071737016698	0.8322248436998972	0.8201911335473373	-0.3093071737016698	0.8322248436998972	0.8201911335473373	-0.3093071737016698	0.8322248436998972	0.8201911335473373	-0.3093071737016698	0.8322248436998972	0.8201911335473373	-0.3093071737016698	0.8322248436998972	0.8201911335473373	-0.3093071737016698	0.8322248436998972	0.8201911335473373	-0.3093071737016698	0.8322248436998972	0.8201911335473373	-0.3093071737016698	0.8322248436998972	0.8201911335473373	-0.3093071737016698	0.8322248436998972	0.8201911335473373	-0.3093071737016698
0.4249999365217391	0.9167783889946726	0.9731603595942342	-0.3167194497952168	-6.746663717706068	-0.9087395112518121	6.814548701575337	33.16978357054742	-3.534168432615159	2.913843765805335	-23.52560759072665	0.9699288703930909	1.734896821287545e-09	-1.953423299657593e-09	0.84827787973066	2.780129764064796	10	-10.19095929277653	12.13945438500049	3.393748260897722e-09	1.119574389002885e-09	0.0901162752250667	-3.675945678889244	-4.256077775355744	0.2294286525951403	0.09161312968424001	-0.03369039117314861	1.202881107985222	3.485290266233837e-09	-0.247031249975184	0.2294286525951403	0.09161312968424001	-0.03369039117314861	1.202881107985222	3.485290266233837e-09	-0.247031249975184	1.178199791777425e-09	-0.003215834654915554	3.47175969559392e-09	1.178199791777425e-09	-0.003215834654915554	3.47175969559392e-09	0.8518138542001038	0.8174167172448237	-0.3103641155569057	0.8518138542001038	0.8174167172448237	-0.3103641155569057	0.8518138542001038	0.8174167172448237	-0.3103641155569057	0.8518138542001038	0.8174167172448237	-0.3103641155569057	0.8518138542001038	0.8174167172448237	-0.3103641155569057	0.8518138542001038	0.8174167172448237	-0.3103641155569057	0.8518138542001038	0.8174167172448237	-0.3103641155569057	0.8518138542001038	0.8174167172448237	-0.3103641155569057	0.8518138542001038	0.8174167172448237	-0.3103641155569057	0.8518138542001038	0.8174167172448237	-0.3103641155569057	0.8518138542001038	0.8174167172448237	-0.3103641155569057	0.8518138542001038	0.8174167172448237	-0.3103641155569057	0.8518138542001038	0.8174167172448237	-0.3103641155569057	0.8518138542001038	0.8174167172448237	-0.3103641155569057	0.8518138542001038	0.8174167172448237	-0.3103641155569057	0.8518138542001038	0.8174167172448237	-0.3103641155569057	0.8518138542001038	0.8174167172448237	-0.3103641155569057	0.8518138542001038	0.8174167172448237	-0.3103641155569057	0.8518138542001038	0.8174167172448237	-0.3103641155569057	0.8518138542001038	0.8174167172448237	-0.3103641155569057	0.8518138542001038	0.8174167172448237	-0.3103641155569057	0.8518138542001038	0.8174167172448237	-0.3103641155569057	0.8518138542001038	0.8174167172448237	-0.3103641155569057	0.8518138542001038	0.8174167172448237	-0.3103641155569057	0.8518138542001038	0.8174167172448237	-0.3103641155569057	0.8518138542001038	0.8174167172448237	-0.3103641155569057	0.8518138542001038	0.8174167172448237	-0.3103641155569057	0.8518138542001038	0.8174167172448237	-0.3103641155569057	0.8518138542001038	0.8174167172448237	-0.3103641155569057	0.8518138542001038	0.8174167172448237	-0.3103641155569057	0.8518138542001038	0.8174167172448237	-0.3103641155569057	0.8518138542001038	0.8174167172448237	-0.3103641155569057	0.8518138542001038	0.8174167172448237	-0.3103641155569057	0.8518138542001038	0.8174167172448237	-0.3103641155569057	0.8518138542001038	0.8174167172448237	-0.3103641155569057	0.8518138542001038	0.8174167172448237	-0.3103641155569057	0.8518138542001038	0.8174167172448237	-0.3103641155569057
